<?xml version="1.0" encoding="UTF-8"?><svg id="a" xmlns="http://www.w3.org/2000/svg" viewBox="0 0 895.18 357.13"><defs><style>.b{fill:#fafbfb;}.c{fill:#231f20;}</style></defs><path class="c" d="M895.18,44.87v216.37c0,24.68-20.19,44.87-44.87,44.87h-98.84l41.68,51.02-102.04-51.02H44.87c-24.68,0-44.87-20.19-44.87-44.87V44.87C0,20.19,20.19,0,44.87,0H850.31c24.68,0,44.87,20.19,44.87,44.87Z"/><g><path class="b" d="M65.68,204.41h-13.49V102.03h14.07v39.15c4.21-6.53,14.07-11.89,24.22-11.89,19.58,0,34.8,16.1,34.8,38.43s-15.23,38.43-34.8,38.43c-10.15,0-20.74-5.51-24.8-12.62v10.88Zm45.39-36.69c0-15.22-10.73-25.52-22.91-25.52s-22.77,10.15-22.77,25.52,10.59,25.52,22.77,25.52,22.91-10.3,22.91-25.52Z"/><path class="b" d="M136.44,220.65c3.92,2.46,7.54,2.46,9.28,2.46,6.38,0,10.15-3.62,13.2-11.6l3.04-8.12-30.45-72.36h15.81l21.32,55.54,20.74-55.54h15.23l-34.08,85.41c-4.35,11.02-10,18.71-23.49,18.71-2.9,0-6.52-.15-10.58-1.89v-12.62Z"/><path class="b" d="M288.97,203.68c-2.75,1.59-6.67,2.46-11.75,2.46-14.36,0-22.91-8.56-22.91-23.35v-40.02h-11.02v-11.75h11.46v-17.26l13.63-4.35v21.61h18.85v11.75h-18.85v38.28c0,8.27,3.77,12.04,11.89,12.04,1.6,0,5.22-.29,8.7-2.32v12.91Z"/><path class="b" d="M318.41,102.03v39.15c4.21-6.53,11.6-11.89,23.49-11.89,16.24,0,28.42,11.31,28.42,30.74v44.37h-14.07v-43.79c0-12.18-7.98-18.42-17.26-18.42-15.23,0-20.59,12.62-20.59,23.49v38.72h-14.07V102.03h14.07Z"/><path class="b" d="M453.84,163.37c0,2.75-.29,5.66-.73,7.98h-54.09c1.6,15.51,12.76,21.75,25.38,21.75,9.28,0,18.42-3.33,24.65-8.84v14.65c-9.43,6.38-17.98,7.25-26.68,7.25-23.2,0-38.14-16.68-38.14-38.28s14.36-38.57,36.4-38.57,33.21,15.23,33.21,34.08Zm-54.38-3.48h40.46c-1.02-10.88-8.56-17.98-19.58-17.98s-18.71,6.82-20.88,17.98Z"/><path class="b" d="M495.59,131.04h14.64l16.68,54.23,17.69-54.23h13.63l17.69,54.23,16.68-54.23h14.64l-23.93,73.37h-13.63l-18.27-53.8-18.27,53.8h-13.63l-23.92-73.37Z"/><path class="b" d="M645.67,129.3c18.71,0,30.31,10.88,30.31,27.7v47.42h-13.05v-11.31c-5.22,8.7-13.78,13.05-23.93,13.05-13.63,0-23.78-8.99-23.78-21.17,0-13.05,9.71-20.3,27.41-22.77l19.29-2.75v-2.75c0-9.14-6.38-14.65-17.11-14.65-9.72,0-18.56,4.5-24.07,8.55v-14.07c5.95-4.06,15.08-7.25,24.94-7.25Zm16.53,44.81v-3.77l-17.4,2.17c-10.15,1.31-15.81,5.22-15.81,11.6s5.08,10.15,12.33,10.15c11.89,0,20.88-9.86,20.88-20.16Z"/><path class="b" d="M689.74,220.65c3.91,2.46,7.54,2.46,9.28,2.46,6.38,0,10.15-3.62,13.2-11.6l3.05-8.12-30.45-72.36h15.8l21.32,55.54,20.73-55.54h15.23l-34.08,85.41c-4.35,11.02-10.01,18.71-23.49,18.71-2.9,0-6.53-.15-10.59-1.89v-12.62Z"/><path class="b" d="M768.04,188.31c4.79,0,8.85,3.92,8.85,8.85s-4.06,8.99-8.85,8.99-8.85-4.06-8.85-8.99,4.06-8.85,8.85-8.85Z"/><path class="b" d="M801.68,188.31c4.79,0,8.85,3.92,8.85,8.85s-4.06,8.99-8.85,8.99-8.84-4.06-8.84-8.99,4.06-8.85,8.84-8.85Z"/><path class="b" d="M835.32,188.31c4.79,0,8.85,3.92,8.85,8.85s-4.06,8.99-8.85,8.99-8.85-4.06-8.85-8.99,4.06-8.85,8.85-8.85Z"/></g></svg>