<?xml version="1.0" encoding="UTF-8"?><svg id="a" xmlns="http://www.w3.org/2000/svg" viewBox="0 0 1111.41 379.88"><defs><style>.b{fill:#fafbfb;}.c{fill:#231f20;}</style></defs><polygon class="b" points="201.14 306.05 153.83 379.82 269.64 306.05 201.14 306.05"/><rect class="b" x=".04" y="-.06" width="1111.41" height="306.11" rx="50" ry="50"/><g><path class="c" d="M106.97,121.78l-21.19-32.97v49.21h-9.41V70.95h8.65l24.89,39.81,24.89-39.81h8.65v67.07h-9.41v-49.21l-21.19,32.97h-5.89Z"/><path class="c" d="M216.89,132.71c-7.12,4.28-15.96,6.46-25.27,6.46-19.86,0-34.01-15.1-34.01-34.87s16.34-34.49,35.63-34.49c8.07,0,14.92,1.71,21.47,5.32v10.17c-6.84-4.28-13.87-6.27-21.66-6.27-13.87,0-25.94,10.55-25.94,26.13,0,14.54,9.69,24.7,25.37,24.7,4.08,0,9.79-.76,15.11-2.57v-16.72h-17.86v-8.27h27.17v30.4Z"/><path class="c" d="M267.62,74.09v9.79c-4.66-3.23-10.83-5.23-16.25-5.23-6.84,0-12.45,3.14-12.45,9.12,0,5.42,4.46,8.08,13.3,11.78,9.98,4.28,19,8.36,19,19.86,0,12.07-9.79,19.67-23.37,19.67-7.69,0-14.72-2.47-19.19-5.61v-10.64c4.84,4.18,11.97,7.41,18.81,7.41,7.41,0,13.59-3.9,13.59-10.45,0-5.89-5.13-8.46-14.73-12.63-8.74-3.71-17.39-7.89-17.39-18.81s9.31-18.53,22.14-18.53c6.46,0,12.35,1.8,16.53,4.28Z"/><path class="c" d="M301.82,70.95h9.88l26.03,67.07h-9.69l-7.03-18.24h-28.5l-7.03,18.24h-9.69l26.03-67.07Zm16.15,40l-11.21-29.74-11.21,29.74h22.42Z"/><path class="c" d="M368.7,70.95h23.37c19.57,0,33.82,14.82,33.82,33.44s-14.25,33.63-33.82,33.63h-23.37V70.95Zm22.52,58.52c13.68,0,24.89-10.45,24.89-25.08s-11.12-24.89-24.8-24.89h-13.21v49.97h13.11Z"/><path class="c" d="M480.42,111.14c0,1.81-.19,3.71-.47,5.23h-35.44c1.04,10.17,8.36,14.25,16.62,14.25,6.08,0,12.07-2.18,16.15-5.79v9.59c-6.17,4.18-11.78,4.75-17.48,4.75-15.2,0-24.99-10.92-24.99-25.08s9.41-25.27,23.85-25.27,21.75,9.98,21.75,22.33Zm-35.62-2.28h26.5c-.67-7.12-5.6-11.78-12.83-11.78s-12.25,4.46-13.68,11.78Z"/><path class="c" d="M521.93,93.28v9.5c-4.28-3.61-8.93-5.7-14.35-5.7-6.08,0-8.93,2.56-8.93,5.79,0,3.51,3.51,5.22,9.97,7.12,7.7,2.19,15.77,4.84,15.77,14.44,0,9.02-7.03,14.72-17.96,14.72-6.27,0-12.45-1.9-16.91-5.51v-10.26c4.66,4.75,9.69,7.5,16.25,7.5s9.69-2.66,9.69-6.37c0-3.89-3.8-5.22-10.74-7.32-7.6-2.38-15.11-5.22-15.11-13.87s6.94-14.54,17.58-14.54c5.51,0,11.31,1.71,14.73,4.47Z"/><path class="c" d="M547.01,75.61c0,3.23-2.66,5.89-5.79,5.89s-5.79-2.66-5.79-5.89,2.66-5.79,5.79-5.79,5.79,2.57,5.79,5.79Zm-10.45,14.35h9.22v48.07h-9.22v-48.07Z"/><path class="c" d="M584.34,89.96h17.67v7.69h-7.89c1.62,2.57,2.47,5.51,2.47,8.74,0,9.79-8.46,17.58-19.19,17.58-1.71,0-3.33-.19-4.94-.57-1.04,.76-1.9,1.8-1.9,3.23,0,2.19,1.9,3.42,3.8,3.42h12.16c9.69,0,15.96,5.7,15.96,13.4,0,8.26-9.41,14.73-23.94,14.73-13.3,0-21.66-4.94-21.66-13.4,0-4.66,3.61-8.26,8.08-10.45-2.19-1.62-3.13-3.89-3.13-6.46,0-2.85,1.71-5.32,4.27-7.22-4.75-3.14-7.88-8.36-7.88-14.25,0-9.79,8.46-17.58,19.19-17.58,2.47,0,4.75,.38,6.93,1.14Zm-18.24,53.96c0,3.8,5.42,5.99,12.64,5.99,9.5,0,14.72-2.56,14.72-6.27s-3.51-5.42-7.7-5.42h-14.06c-2.09,.57-5.61,2.28-5.61,5.7Zm1.04-37.53c0,5.23,4.56,9.5,10.26,9.5s10.26-4.27,10.26-9.5-4.56-9.5-10.26-9.5-10.26,4.28-10.26,9.5Z"/><path class="c" d="M638.11,88.82c10.93,0,18.62,7.41,18.62,20.14v29.07h-9.21v-28.69c0-7.98-5.13-12.07-11.3-12.07-9.98,0-13.49,9.22-13.49,16.34v24.42h-9.22v-48.07h9.03v7.22c2.75-5.04,7.6-8.36,15.58-8.36Z"/><path class="c" d="M88.83,176.51h-20.14v-8.55h49.69v8.55h-20.14v58.52h-9.41v-58.52Z"/><path class="c" d="M137.37,167.95v25.65c2.75-4.27,7.6-7.79,15.39-7.79,10.64,0,18.62,7.41,18.62,20.14v29.07h-9.21v-28.69c0-7.98-5.23-12.07-11.31-12.07-9.97,0-13.49,8.27-13.49,15.39v25.37h-9.21v-67.07h9.21Z"/><path class="c" d="M228.48,208.14c0,1.81-.19,3.71-.48,5.23h-35.44c1.04,10.17,8.36,14.25,16.63,14.25,6.08,0,12.06-2.18,16.15-5.79v9.59c-6.17,4.18-11.78,4.75-17.48,4.75-15.2,0-24.99-10.92-24.99-25.08s9.4-25.27,23.84-25.27,21.76,9.98,21.76,22.33Zm-35.63-2.28h26.51c-.67-7.12-5.61-11.78-12.83-11.78s-12.26,4.46-13.68,11.78Z"/><path class="c" d="M269.99,190.28v9.5c-4.27-3.61-8.93-5.7-14.34-5.7-6.08,0-8.93,2.56-8.93,5.79,0,3.51,3.52,5.22,9.98,7.12,7.7,2.19,15.77,4.84,15.77,14.44,0,9.02-7.03,14.72-17.96,14.72-6.27,0-12.44-1.9-16.91-5.51v-10.26c4.66,4.75,9.69,7.5,16.25,7.5s9.69-2.66,9.69-6.37c0-3.89-3.8-5.22-10.74-7.32-7.6-2.38-15.1-5.22-15.1-13.87s6.93-14.54,17.58-14.54c5.51,0,11.3,1.71,14.72,4.47Z"/><path class="c" d="M295.07,172.61c0,3.23-2.66,5.89-5.79,5.89s-5.79-2.66-5.79-5.89,2.66-5.79,5.79-5.79,5.79,2.57,5.79,5.79Zm-10.45,14.35h9.21v48.07h-9.21v-48.07Z"/><path class="c" d="M339.34,190.28v9.5c-4.27-3.61-8.93-5.7-14.34-5.7-6.08,0-8.93,2.56-8.93,5.79,0,3.51,3.52,5.22,9.98,7.12,7.7,2.19,15.77,4.84,15.77,14.44,0,9.02-7.03,14.72-17.96,14.72-6.27,0-12.44-1.9-16.91-5.51v-10.26c4.66,4.75,9.69,7.5,16.25,7.5s9.69-2.66,9.69-6.37c0-3.89-3.8-5.22-10.74-7.32-7.6-2.38-15.1-5.22-15.1-13.87s6.93-14.54,17.58-14.54c5.51,0,11.3,1.71,14.72,4.47Z"/><path class="c" d="M413.82,171.09v9.79c-4.65-3.23-10.83-5.23-16.25-5.23-6.84,0-12.44,3.14-12.44,9.12,0,5.42,4.46,8.08,13.3,11.78,9.97,4.28,19,8.36,19,19.86,0,12.07-9.79,19.67-23.37,19.67-7.7,0-14.73-2.47-19.19-5.61v-10.64c4.84,4.18,11.97,7.41,18.81,7.41,7.41,0,13.58-3.9,13.58-10.45,0-5.89-5.13-8.46-14.73-12.63-8.74-3.71-17.38-7.89-17.38-18.81s9.31-18.53,22.14-18.53c6.46,0,12.35,1.8,16.53,4.28Z"/><path class="c" d="M438.61,167.95v25.65c2.75-4.27,7.6-7.79,15.39-7.79,10.64,0,18.62,7.41,18.62,20.14v29.07h-9.21v-28.69c0-7.98-5.22-12.07-11.3-12.07-9.98,0-13.49,8.27-13.49,15.39v25.37h-9.22v-67.07h9.22Z"/><path class="c" d="M533.9,210.99c0,14.16-10.64,25.17-24.89,25.17s-24.89-11.02-24.89-25.17,10.64-25.18,24.89-25.18,24.89,11.02,24.89,25.18Zm-40.38,0c0,8.93,6.37,16.44,15.49,16.44s15.49-7.51,15.49-16.44-6.37-16.44-15.49-16.44-15.49,7.5-15.49,16.44Z"/><path class="c" d="M539.12,186.96h9.6l10.92,35.53,11.59-35.53h8.93l11.59,35.53,10.92-35.53h9.6l-15.68,48.07h-8.93l-11.97-35.25-11.97,35.25h-8.93l-15.68-48.07Z"/><path class="c" d="M671.46,186.67c0-6.56-5.7-10.93-12.63-10.93-5.23,0-12.54,2.38-17.58,8.17v-11.02c3.8-3.51,10.54-6.08,17.67-6.08,12.54,0,22.23,7.98,22.23,19.76,0,6.75-3.13,11.97-8.08,17.58l-19.95,22.71h28.41v8.17h-41.42v-5.99l26.6-31.25c3.42-3.99,4.75-7.79,4.75-11.12Z"/><path class="c" d="M692.36,201.49c0-17.48,6.65-34.68,24.42-34.68s24.42,17.2,24.42,34.68-6.65,34.67-24.42,34.67-24.42-17.2-24.42-34.67Zm24.42,25.75c9.4,0,14.72-9.21,14.72-25.75s-5.32-25.75-14.72-25.75-14.73,9.22-14.73,25.75,5.32,25.75,14.73,25.75Z"/><path class="c" d="M782.7,186.67c0-6.56-5.7-10.93-12.64-10.93-5.22,0-12.54,2.38-17.58,8.17v-11.02c3.8-3.51,10.54-6.08,17.67-6.08,12.54,0,22.23,7.98,22.23,19.76,0,6.75-3.13,11.97-8.08,17.58l-19.95,22.71h28.41v8.17h-41.42v-5.99l26.6-31.25c3.42-3.99,4.75-7.79,4.75-11.12Z"/><path class="c" d="M834.09,186.67c0-6.56-5.7-10.93-12.64-10.93-5.22,0-12.54,2.38-17.58,8.17v-11.02c3.8-3.51,10.54-6.08,17.67-6.08,12.54,0,22.23,7.98,22.23,19.76,0,6.75-3.13,11.97-8.08,17.58l-19.95,22.71h28.41v8.17h-41.42v-5.99l26.6-31.25c3.42-3.99,4.75-7.79,4.75-11.12Z"/></g></svg>