<svg id="Layer_1" data-name="Layer 1" xmlns="http://www.w3.org/2000/svg" viewBox="0 0 16 16"><defs><style>.cls-1{fill:#231f20;}.cls-2{fill:#fafbfb;}</style></defs><path class="cls-1" d="M15.86,6V8.94a.71.71,0,0,1-.71.7H13l.67,1L12,9.64H.85a.71.71,0,0,1-.71-.7V6a.71.71,0,0,1,.71-.71h14.3A.71.71,0,0,1,15.86,6Z"/><path class="cls-2" d="M1.34,8.41H1.1V6.64h.25v.68a.5.5,0,0,1,.42-.21.62.62,0,0,1,.6.67.62.62,0,0,1-.6.66.5.5,0,0,1-.43-.22Zm.79-.63a.42.42,0,0,0-.4-.45.45.45,0,0,0,0,.89A.42.42,0,0,0,2.13,7.78Z"/><path class="cls-2" d="M2.57,8.69a.25.25,0,0,0,.16.05c.12,0,.18-.07.23-.2L3,8.4,2.49,7.14h.27l.37,1,.36-1h.27l-.6,1.48C3.09,8.81,3,9,2.76,9a.5.5,0,0,1-.19,0Z"/><path class="cls-2" d="M5.22,8.4a.4.4,0,0,1-.2,0,.37.37,0,0,1-.4-.4v-.7H4.43v-.2h.2v-.3l.23-.08v.38h.33v.2H4.86V8a.19.19,0,0,0,.21.21.37.37,0,0,0,.15,0Z"/><path class="cls-2" d="M5.76,6.64v.68a.44.44,0,0,1,.4-.21.49.49,0,0,1,.5.53v.77H6.41V7.65a.29.29,0,0,0-.3-.32c-.26,0-.35.22-.35.41v.67H5.51V6.64Z"/><path class="cls-2" d="M8.17,7.7s0,.1,0,.14H7.22a.4.4,0,0,0,.44.38.65.65,0,0,0,.43-.16v.26a.79.79,0,0,1-.47.12A.64.64,0,0,1,7,7.78a.63.63,0,0,1,.63-.67A.55.55,0,0,1,8.17,7.7Zm-.94-.06h.7a.32.32,0,0,0-.34-.31A.35.35,0,0,0,7.23,7.64Z"/><path class="cls-2" d="M8.89,7.14h.26l.29.94.3-.94H10l.31.94.29-.94h.25l-.41,1.27h-.24l-.32-.93-.31.93H9.31Z"/><path class="cls-2" d="M11.5,7.11a.47.47,0,0,1,.52.48v.82H11.8V8.22a.46.46,0,0,1-.42.22A.38.38,0,0,1,11,8.08c0-.23.17-.36.48-.4l.33,0v0c0-.16-.11-.26-.3-.26a.69.69,0,0,0-.41.15V7.24A.71.71,0,0,1,11.5,7.11Zm.29.78V7.82l-.31,0c-.17,0-.27.09-.27.2a.19.19,0,0,0,.21.18A.37.37,0,0,0,11.79,7.89Z"/><path class="cls-2" d="M12.31,8.69a.25.25,0,0,0,.16.05c.11,0,.18-.07.23-.2l.05-.14-.53-1.26h.28l.37,1,.36-1h.26L12.9,8.62c-.08.19-.17.33-.41.33a.45.45,0,0,1-.18,0Z"/><path class="cls-2" d="M13.67,8.13a.16.16,0,0,1,.15.16.15.15,0,0,1-.15.15.16.16,0,0,1-.16-.15A.16.16,0,0,1,13.67,8.13Z"/><path class="cls-2" d="M14.25,8.13a.16.16,0,0,1,.15.16.15.15,0,0,1-.3,0A.16.16,0,0,1,14.25,8.13Z"/><path class="cls-2" d="M14.84,8.13a.16.16,0,0,1,.15.16.15.15,0,0,1-.15.15.16.16,0,0,1-.16-.15A.16.16,0,0,1,14.84,8.13Z"/></svg>